HIERARCHY
ROOT Hips
{
	OFFSET 0.000000 0.000000 0.000000 
	CHANNELS 6 Xposition Yposition Zposition Zrotation Yrotation Xrotation
	JOINT LeftUpLeg
	{
		OFFSET 1.363060 -1.794630 0.839290 
		CHANNELS 3 Zrotation Yrotation Xrotation
		JOINT LeftLeg
		{
			OFFSET 2.448110 -6.726130 0.000000 
			CHANNELS 3 Zrotation Yrotation Xrotation
			JOINT LeftFoot
			{
				OFFSET 2.562200 -7.039590 0.000000 
				CHANNELS 3 Zrotation Yrotation Xrotation
				JOINT LeftToeBase
				{
					OFFSET 0.157640 -0.433110 2.322550 
					CHANNELS 3 Zrotation Yrotation Xrotation
					End Site
					{
						OFFSET 0.000000 0.000000 0.000000 
					}
				}
			}
		}
	}
	JOINT RightUpLeg
	{
		OFFSET -1.305520 -1.794630 0.839290 
		CHANNELS 3 Zrotation Yrotation Xrotation
		JOINT RightLeg
		{
			OFFSET -2.542530 -6.985550 0.000000 
			CHANNELS 3 Zrotation Yrotation Xrotation
			JOINT RightFoot
			{
				OFFSET -2.568260 -7.056230 0.000000 
				CHANNELS 3 Zrotation Yrotation Xrotation
				JOINT RightToeBase
				{
					OFFSET -0.164730 -0.452590 2.363150 
					CHANNELS 3 Zrotation Yrotation Xrotation
					End Site
					{
						OFFSET 0.000000 0.000000 0.000000 
					}
				}
			}
		}
	}
	JOINT Spine
	{
		OFFSET 0.028270 2.035590 -0.193380 
		CHANNELS 3 Zrotation Yrotation Xrotation
		JOINT Spine1
		{
			OFFSET 0.056720 2.048850 -0.042750 
			CHANNELS 3 Zrotation Yrotation Xrotation
			JOINT Neck1
			{
				OFFSET -0.054170 1.746240 0.172020 
				CHANNELS 3 Zrotation Yrotation Xrotation
				JOINT Head
				{
					OFFSET 0.104070 1.761360 -0.123970 
					CHANNELS 3 Zrotation Yrotation Xrotation
					End Site
					{
						OFFSET 0.000000 0.000000 0.000000 
					}
				}
			}
			JOINT LeftArm
			{
				OFFSET 3.362410 1.200890 -0.311210 
				CHANNELS 3 Zrotation Yrotation Xrotation
				JOINT LeftForeArm
				{
					OFFSET 4.983000 -0.000000 -0.000000 
					CHANNELS 3 Zrotation Yrotation Xrotation
					JOINT LeftHand
					{
						OFFSET 3.483560 -0.000000 -0.000000 
						CHANNELS 3 Zrotation Yrotation Xrotation
						JOINT LeftHandIndex1
						{
							OFFSET 0.715260 -0.000000 -0.000000 
							CHANNELS 3 Zrotation Yrotation Xrotation
							End Site
							{
								OFFSET 0.000000 0.000000 0.000000 
							}
						}
					}
				}
			}
			JOINT RightArm
			{
				OFFSET -3.136600 1.374050 -0.404650 
				CHANNELS 3 Zrotation Yrotation Xrotation
				JOINT RightForeArm
				{
					OFFSET -5.241900 -0.000000 -0.000000 
					CHANNELS 3 Zrotation Yrotation Xrotation
					JOINT RightHand
					{
						OFFSET -3.444170 -0.000000 -0.000000 
						CHANNELS 3 Zrotation Yrotation Xrotation
						JOINT RightHandIndex1
						{
							OFFSET -0.622530 -0.000000 -0.000000 
							CHANNELS 3 Zrotation Yrotation Xrotation
							End Site
							{
								OFFSET 0.000000 0.000000 0.000000 
							}
						}
					}
				}
			}
		}
	}
}
MOTION
Frames: 16
Frame Time: 0.041667
32.964296 17.747925 7.379046 -127.279112 -85.325200 135.584953 -14.261058 -8.121079 -8.079909 -0.334338 5.797158 14.583536 -0.171180 3.104783 -0.040758 0.009100 0.615200 1.690600 17.962616 0.863020 -31.025278 -11.031995 -18.601465 62.798486 3.510041 -19.354880 -1.073815 -0.262800 -3.297700 9.108800 0.656639 -2.103169 -4.661347 4.798439 -1.271686 -2.103905 11.415520 -17.397078 3.555865 4.761800 -8.467900 6.581700 -92.197343 1.357751 33.741776 32.718985 -49.381661 -12.207872 0.480765 2.724881 17.736399 -7.125000 0.000000 0.000000 84.271367 0.906668 47.227042 -37.918348 49.657486 -18.855768 -0.489736 0.233972 2.514842 7.125000 0.000000 0.000000 
32.849877 17.751231 7.384958 -128.311374 -85.518436 136.593491 -14.612288 -8.014326 -7.417309 -0.376912 5.628717 14.107830 -0.154521 3.025919 -0.178375 0.008600 0.598000 1.643100 17.691974 1.026249 -31.796468 -10.644949 -18.420930 61.640516 3.485163 -19.065365 -2.075759 -0.206300 -2.924300 8.068200 0.691981 -2.223846 -4.699715 4.914665 -1.325847 -2.243021 11.387672 -17.319814 3.667996 4.729900 -8.420500 6.649000 -91.725479 1.230251 34.725007 34.983877 -50.849069 -13.431849 0.364686 2.682265 16.941569 -7.125000 0.000000 0.000000 84.081472 0.696738 47.342547 -40.109818 50.872635 -20.511435 -0.485930 0.221428 2.153128 7.125000 0.000000 0.000000 
32.737060 17.753435 7.388164 -128.531151 -85.621108 136.845793 -14.780347 -7.772645 -6.857762 -0.417239 5.457209 13.633908 -0.115049 2.839921 -0.275919 0.008900 0.610700 1.678100 17.574155 1.241037 -32.555118 -10.219753 -18.214992 60.322674 3.505882 -19.049533 -2.782833 -0.169000 -2.648000 7.300200 0.739839 -2.368043 -4.702530 4.988392 -1.395884 -2.195894 11.270028 -17.246237 3.720681 4.660000 -8.377200 6.678900 -91.244580 1.007820 35.577083 37.376273 -52.330173 -14.820787 0.269732 2.674966 16.283091 -7.125000 0.000000 0.000000 83.926352 0.671874 47.558390 -42.275714 51.986922 -22.168700 -0.485404 0.207472 1.897409 7.125000 0.000000 0.000000 
32.626849 17.751331 7.391971 -130.312037 -85.767838 138.602510 -15.099671 -7.675183 -6.265327 -0.446308 5.327394 13.266177 -0.110022 2.811452 -0.482247 0.008800 0.605800 1.664800 17.341613 1.460870 -33.112262 -9.687617 -17.928990 58.629544 3.546259 -19.130189 -3.456554 -0.155000 -2.537100 6.992400 0.791501 -2.525933 -4.769073 5.163365 -1.464003 -2.436367 11.313474 -17.070090 3.709314 4.713800 -8.300100 6.635700 -90.833057 0.986557 36.233126 39.713028 -53.659346 -16.198812 0.178539 2.648694 15.775923 -7.125000 0.000000 0.000000 83.746354 0.440475 47.742211 -44.457181 53.022755 -23.867642 -0.489487 0.204536 1.740948 7.125000 0.000000 0.000000 
32.515736 17.750129 7.395277 -131.519124 -85.895630 139.819122 -15.354309 -7.526329 -5.704611 -0.475995 5.188043 12.877138 -0.092023 2.723516 -0.653206 0.008400 0.593300 1.630400 17.147859 1.685055 -33.709322 -9.181863 -17.642337 57.004668 3.561617 -19.119129 -4.081768 -0.137100 -2.386600 6.575400 0.831344 -2.650164 -4.800535 5.275370 -1.519771 -2.541824 11.269740 -16.982849 3.762718 4.684100 -8.252000 6.666400 -90.383472 0.743314 36.880365 42.118664 -54.927160 -17.661649 0.092721 2.623299 15.284170 -7.125000 0.000000 0.000000 83.622351 0.352180 47.831776 -46.770204 54.039670 -25.694177 -0.492000 0.197726 1.509174 7.125000 0.000000 0.000000 
32.405124 17.747323 7.397882 -132.889019 -86.007002 141.210551 -15.591977 -7.368897 -5.178570 -0.501986 5.058502 12.516499 -0.074438 2.637491 -0.836755 0.007900 0.572800 1.573900 16.963645 1.931727 -34.241900 -8.639323 -17.312741 55.224504 3.581190 -19.143677 -4.602375 -0.126300 -2.290900 6.310400 0.868841 -2.766184 -4.829305 5.382104 -1.571622 -2.634666 11.232060 -16.900249 3.812269 4.657600 -8.206000 6.698100 -89.944206 0.434991 37.444765 44.522850 -56.095976 -19.161627 0.013808 2.600040 14.883099 -7.125000 0.000000 0.000000 83.531266 0.294745 47.872761 -49.138884 55.000184 -27.589180 -0.495132 0.191375 1.292030 7.125000 0.000000 0.000000 
32.294812 17.743015 7.399586 -134.375714 -86.104087 142.729866 -15.815972 -7.214899 -4.677533 -0.524405 4.939282 12.185574 -0.058534 2.559521 -1.036771 0.007100 0.544000 1.494700 16.786515 2.198781 -34.699695 -8.059393 -16.934045 53.278233 3.601633 -19.183111 -5.016080 -0.120600 -2.238900 6.166400 0.902414 -2.871813 -4.855764 5.478722 -1.618897 -2.719547 11.193455 -16.827702 3.867655 4.628100 -8.163900 6.736200 -89.507891 0.065552 37.944499 46.925729 -57.168562 -20.693838 -0.060411 2.579490 14.561311 -7.125000 0.000000 0.000000 83.480740 0.258629 47.853594 -51.569354 55.907732 -29.556072 -0.497941 0.184022 1.064690 7.125000 0.000000 0.000000 
32.184100 17.737204 7.400087 -135.667809 -86.193887 144.074493 -16.012855 -7.061160 -4.210396 -0.543723 4.830689 11.885790 -0.039690 2.467489 -1.246095 0.006300 0.512600 1.408600 16.625280 2.470804 -35.086941 -7.444476 -16.501490 51.162568 3.622751 -19.234002 -5.317035 -0.119900 -2.232700 6.149200 0.932311 -2.973231 -4.870658 5.556522 -1.665954 -2.752957 11.153900 -16.769051 3.917039 4.593700 -8.126800 6.777600 -89.067034 -0.379763 38.391516 49.343884 -58.158925 -22.269497 -0.136306 2.566525 14.325584 -7.125000 0.000000 0.000000 83.479747 0.274896 47.769129 -54.055843 56.762167 -31.588451 -0.499087 0.174529 0.803653 7.125000 0.000000 0.000000 
32.072687 17.729890 7.399285 -136.815225 -86.293190 145.289964 -16.198109 -6.909102 -3.771279 -0.560554 4.729644 11.609742 -0.016082 2.352938 -1.454638 0.005600 0.482700 1.326400 16.465923 2.729788 -35.402917 -6.799249 -16.008361 48.874225 3.645902 -19.299452 -5.472025 -0.120700 -2.239500 6.168000 0.964142 -3.089780 -4.891263 5.640964 -1.720448 -2.794087 11.121338 -16.698693 3.957517 4.572200 -8.087200 6.805800 -88.639111 -0.810365 38.766163 51.807537 -59.070709 -23.896296 -0.199334 2.547252 14.167666 -7.125000 0.000000 0.000000 83.500322 0.275791 47.655218 -56.612124 57.569121 -33.695192 -0.497816 0.162463 0.489446 7.125000 0.000000 0.000000 
31.961273 17.720773 7.397382 -137.990266 -86.398896 146.557324 -16.379117 -6.769882 -3.373219 -0.574067 4.643554 11.374943 0.009400 2.229946 -1.678910 0.004900 0.452900 1.244400 16.300290 2.989492 -35.655045 -6.132594 -15.452494 46.427403 3.668799 -19.369068 -5.470924 -0.125100 -2.280000 6.280200 0.989862 -3.201051 -4.900166 5.705306 -1.774307 -2.783284 11.089090 -16.644309 3.983679 4.543600 -8.052900 6.835000 -88.197941 -1.303149 39.113835 54.319901 -59.901401 -25.572924 -0.252403 2.523405 14.063448 -7.125000 0.000000 0.000000 83.568524 0.332331 47.479900 -59.229201 58.325707 -35.866126 -0.494341 0.148057 0.115741 7.125000 0.000000 0.000000 
31.849358 17.709852 7.394576 -139.275646 -86.511260 147.959725 -16.557634 -6.637337 -3.019776 -0.585085 4.569072 11.173232 0.037675 2.094248 -1.908095 0.004400 0.428100 1.176300 16.124959 3.251184 -35.852792 -5.455277 -14.832754 43.838724 3.689664 -19.437963 -5.279328 -0.129100 -2.315800 6.379100 1.014461 -3.308734 -4.914557 5.772679 -1.826095 -2.782247 11.050781 -16.596884 4.006817 4.511800 -8.022500 6.862800 -87.761756 -1.785383 39.430873 56.923302 -60.658448 -27.319483 -0.296498 2.494516 13.980331 -7.125000 0.000000 0.000000 83.656754 0.386653 47.257224 -61.910209 59.032637 -38.100771 -0.488175 0.131898 -0.327077 7.125000 0.000000 0.000000 
31.736943 17.697127 7.390969 -140.691166 -86.637346 149.510631 -16.740599 -6.513886 -2.698239 -0.594061 4.504241 10.998781 0.067638 1.951811 -2.145275 0.003800 0.398000 1.093600 15.930806 3.514518 -35.982788 -4.775061 -14.146745 41.115934 3.704997 -19.495080 -4.888774 -0.134700 -2.366000 6.518200 1.038307 -3.414546 -4.932663 5.846537 -1.876752 -2.786683 11.003658 -16.557199 4.025267 4.476300 -7.997000 6.886800 -87.335873 -2.261436 39.729212 59.590023 -61.325897 -29.111414 -0.332453 2.460919 13.935244 -7.125000 0.000000 0.000000 83.759544 0.443960 46.995619 -64.647205 59.687841 -40.388813 -0.480626 0.115312 -0.833788 7.125000 0.000000 0.000000 
31.623425 17.682800 7.386561 -141.984294 -86.785914 150.950572 -16.923243 -6.409253 -2.394110 -0.601102 4.448554 10.850884 0.100926 1.794150 -2.387056 0.003200 0.362600 0.996400 15.716663 3.780186 -36.027386 -4.097638 -13.389945 38.254844 3.713588 -19.545178 -4.283142 -0.140700 -2.417800 6.661800 1.063885 -3.523444 -4.955815 5.932606 -1.928401 -2.805557 10.949777 -16.525669 4.035885 4.438300 -7.976800 6.905600 -86.930633 -2.728991 40.018861 62.311037 -61.901485 -30.945107 -0.367461 2.428734 13.912683 -7.125000 0.000000 0.000000 83.869805 0.487968 46.695642 -67.432813 60.289996 -42.719897 -0.472116 0.098616 -1.378235 7.125000 0.000000 0.000000 
31.508405 17.666769 7.381651 -143.383584 -86.939624 152.506912 -17.101188 -6.296234 -2.105273 -0.607161 4.396791 10.715101 0.137065 1.623788 -2.627658 0.002500 0.321700 0.884000 15.478918 4.089106 -35.978731 -3.434973 -12.565775 35.280278 3.708291 -19.568889 -3.471583 -0.147400 -2.474500 6.819000 1.093624 -3.630007 -4.987981 6.040962 -1.977510 -2.851164 10.897279 -16.493519 4.036364 4.406800 -7.958900 6.915400 -86.564735 -3.167671 40.294650 65.069176 -62.379365 -32.807132 -0.408050 2.399546 13.928140 -7.125000 0.000000 0.000000 83.966992 0.502197 46.372797 -70.280960 60.841619 -45.100783 -0.462321 0.082096 -1.931774 7.125000 0.000000 0.000000 
31.391380 17.649235 7.375940 -144.574441 -87.097336 153.856821 -17.260882 -6.173885 -1.816024 -0.612745 4.345108 10.581003 0.176356 1.438681 -2.861317 0.001800 0.274300 0.753700 15.215474 4.474100 -35.814399 -2.795835 -11.676061 32.204328 3.693579 -19.595920 -2.508857 -0.152100 -2.512700 6.924800 1.126565 -3.732127 -5.023693 6.160520 -2.023777 -2.909341 10.836789 -16.471824 4.035509 4.371800 -7.947000 6.925900 -86.232994 -3.601662 40.574041 67.839693 -62.752771 -34.684007 -0.454187 2.373502 13.973079 -7.125000 0.000000 0.000000 84.060837 0.499421 46.018675 -73.208126 61.343424 -47.539678 -0.451727 0.065826 -2.465814 7.125000 0.000000 0.000000 
31.271951 17.630099 7.369428 -145.631806 -87.249640 155.076801 -17.400374 -6.035336 -1.528371 -0.617329 4.296041 10.455144 0.218075 1.243373 -3.098150 0.001200 0.219900 0.604200 14.909745 4.990580 -35.521565 -2.192502 -10.730670 29.064746 3.669257 -19.624589 -1.494019 -0.154000 -2.528900 6.969800 1.162494 -3.830699 -5.056511 6.286455 -2.068538 -2.950927 10.776803 -16.454707 4.015843 4.339800 -7.938600 6.927200 -85.936366 -4.036644 40.847416 70.618276 -63.023932 -36.581402 -0.515817 2.352934 14.050590 -7.125000 0.000000 0.000000 84.152339 0.493331 45.643696 -76.209458 61.791110 -50.027225 -0.439905 0.050247 -2.965093 7.125000 0.000000 0.000000 
